<?xml version="1.0" encoding="UTF-8" standalone="no"?><svg xmlns="http://www.w3.org/2000/svg" xmlns:xlink="http://www.w3.org/1999/xlink" contentStyleType="text/css" height="454px" preserveAspectRatio="none" style="width:2822px;height:454px;background:#FFFFFF;" version="1.1" viewBox="0 0 2822 454" width="2822px" zoomAndPan="magnify"><defs/><g><!--MD5=[1d7ba1c7002d54515419844fbd155368]
class Controller--><g id="elem_Controller"><rect codeLine="2" fill="#F1F1F1" height="65.6094" id="Controller" rx="2.5" ry="2.5" style="stroke:#181818;stroke-width:0.5;" width="100" x="1893.5" y="7"/><ellipse cx="1911.2" cy="23" fill="#A9DCDF" rx="11" ry="11" style="stroke:#181818;stroke-width:1.0;"/><path d="M1913.3875,24.7656 L1909.2469,24.7656 L1908.825,25.7969 L1909.2469,25.7969 Q1909.8563,25.7969 1910.1219,26.0313 Q1910.3875,26.2656 1910.3875,26.6563 Q1910.3875,27.0313 1910.1219,27.2656 Q1909.8563,27.5 1909.2469,27.5 L1906.95,27.5 Q1906.3406,27.5 1906.0828,27.2656 Q1905.825,27.0313 1905.825,26.6406 Q1905.825,26.2656 1906.0984,26.0234 Q1906.3719,25.7813 1906.9969,25.7969 L1909.6688,19.1406 L1908.5594,19.1406 Q1907.95,19.1406 1907.6844,18.9063 Q1907.4188,18.6719 1907.4188,18.2813 Q1907.4188,17.9063 1907.6844,17.6719 Q1907.95,17.4375 1908.5594,17.4375 L1912.2313,17.4375 L1915.6219,25.7969 Q1916.2156,25.7969 1916.4031,25.9375 Q1916.7938,26.2031 1916.7938,26.6563 Q1916.7938,27.0313 1916.5359,27.2656 Q1916.2781,27.5 1915.6688,27.5 L1913.3719,27.5 Q1912.7625,27.5 1912.4969,27.2656 Q1912.2313,27.0313 1912.2313,26.6406 Q1912.2313,26.2656 1912.4969,26.0313 Q1912.7625,25.7969 1913.3719,25.7969 L1913.7938,25.7969 L1913.3875,24.7656 Z M1912.6688,23.0625 L1911.3094,19.6875 L1909.9344,23.0625 L1912.6688,23.0625 Z " fill="#000000"/><text fill="#000000" font-family="sans-serif" font-size="14" font-style="italic" lengthAdjust="spacing" textLength="62" x="1925.8" y="28.7285">Controller</text><line style="stroke:#181818;stroke-width:0.5;" x1="1894.5" x2="1992.5" y1="39" y2="39"/><text fill="#000000" font-family="sans-serif" font-size="14" lengthAdjust="spacing" textLength="88" x="1899.5" y="57.5332">model : Model</text><line style="stroke:#181818;stroke-width:0.5;" x1="1894.5" x2="1992.5" y1="64.6094" y2="64.6094"/></g><!--MD5=[7e20e022571e30ec1001cf6eabd7f3e2]
class Model--><g id="elem_Model"><rect codeLine="6" fill="#F1F1F1" height="48" id="Model" rx="2.5" ry="2.5" style="stroke:#181818;stroke-width:0.5;" width="71" x="551" y="177"/><ellipse cx="566" cy="193" fill="#A9DCDF" rx="11" ry="11" style="stroke:#181818;stroke-width:1.0;"/><path d="M568.1875,194.7656 L564.0469,194.7656 L563.625,195.7969 L564.0469,195.7969 Q564.6563,195.7969 564.9219,196.0313 Q565.1875,196.2656 565.1875,196.6563 Q565.1875,197.0313 564.9219,197.2656 Q564.6563,197.5 564.0469,197.5 L561.75,197.5 Q561.1406,197.5 560.8828,197.2656 Q560.625,197.0313 560.625,196.6406 Q560.625,196.2656 560.8984,196.0234 Q561.1719,195.7813 561.7969,195.7969 L564.4688,189.1406 L563.3594,189.1406 Q562.75,189.1406 562.4844,188.9063 Q562.2188,188.6719 562.2188,188.2813 Q562.2188,187.9063 562.4844,187.6719 Q562.75,187.4375 563.3594,187.4375 L567.0313,187.4375 L570.4219,195.7969 Q571.0156,195.7969 571.2031,195.9375 Q571.5938,196.2031 571.5938,196.6563 Q571.5938,197.0313 571.3359,197.2656 Q571.0781,197.5 570.4688,197.5 L568.1719,197.5 Q567.5625,197.5 567.2969,197.2656 Q567.0313,197.0313 567.0313,196.6406 Q567.0313,196.2656 567.2969,196.0313 Q567.5625,195.7969 568.1719,195.7969 L568.5938,195.7969 L568.1875,194.7656 Z M567.4688,193.0625 L566.1094,189.6875 L564.7344,193.0625 L567.4688,193.0625 Z " fill="#000000"/><text fill="#000000" font-family="sans-serif" font-size="14" font-style="italic" lengthAdjust="spacing" textLength="39" x="580" y="198.7285">Model</text><line style="stroke:#181818;stroke-width:0.5;" x1="552" x2="621" y1="209" y2="209"/><line style="stroke:#181818;stroke-width:0.5;" x1="552" x2="621" y1="217" y2="217"/></g><!--MD5=[c045e12321b83266d36d22b9096c24ea]
class View--><g id="elem_View"><rect codeLine="11" fill="#F1F1F1" height="65.6094" id="View" rx="2.5" ry="2.5" style="stroke:#181818;stroke-width:0.5;" width="98" x="1523.5" y="168"/><ellipse cx="1555.15" cy="184" fill="#A9DCDF" rx="11" ry="11" style="stroke:#181818;stroke-width:1.0;"/><path d="M1557.3375,185.7656 L1553.1969,185.7656 L1552.775,186.7969 L1553.1969,186.7969 Q1553.8063,186.7969 1554.0719,187.0313 Q1554.3375,187.2656 1554.3375,187.6563 Q1554.3375,188.0313 1554.0719,188.2656 Q1553.8063,188.5 1553.1969,188.5 L1550.9,188.5 Q1550.2906,188.5 1550.0328,188.2656 Q1549.775,188.0313 1549.775,187.6406 Q1549.775,187.2656 1550.0484,187.0234 Q1550.3219,186.7813 1550.9469,186.7969 L1553.6188,180.1406 L1552.5094,180.1406 Q1551.9,180.1406 1551.6344,179.9063 Q1551.3688,179.6719 1551.3688,179.2813 Q1551.3688,178.9063 1551.6344,178.6719 Q1551.9,178.4375 1552.5094,178.4375 L1556.1813,178.4375 L1559.5719,186.7969 Q1560.1656,186.7969 1560.3531,186.9375 Q1560.7438,187.2031 1560.7438,187.6563 Q1560.7438,188.0313 1560.4859,188.2656 Q1560.2281,188.5 1559.6188,188.5 L1557.3219,188.5 Q1556.7125,188.5 1556.4469,188.2656 Q1556.1813,188.0313 1556.1813,187.6406 Q1556.1813,187.2656 1556.4469,187.0313 Q1556.7125,186.7969 1557.3219,186.7969 L1557.7438,186.7969 L1557.3375,185.7656 Z M1556.6188,184.0625 L1555.2594,180.6875 L1553.8844,184.0625 L1556.6188,184.0625 Z " fill="#000000"/><text fill="#000000" font-family="sans-serif" font-size="14" font-style="italic" lengthAdjust="spacing" textLength="29" x="1572.85" y="189.7285">View</text><line style="stroke:#181818;stroke-width:0.5;" x1="1524.5" x2="1620.5" y1="200" y2="200"/><line style="stroke:#181818;stroke-width:0.5;" x1="1524.5" x2="1620.5" y1="208" y2="208"/><text fill="#000000" font-family="sans-serif" font-size="14" lengthAdjust="spacing" textLength="86" x="1529.5" y="226.5332">void Display()</text></g><!--MD5=[530a889976d710d42bb229edcb10b447]
class Specification_Input_Screen--><g id="elem_Specification_Input_Screen"><rect fill="#F1F1F1" height="48" id="Specification_Input_Screen" rx="2.5" ry="2.5" style="stroke:#181818;stroke-width:0.5;" width="204" x="1060.5" y="364"/><ellipse cx="1075.5" cy="380" fill="#ADD1B2" rx="11" ry="11" style="stroke:#181818;stroke-width:1.0;"/><path d="M1078.2656,375.875 Q1078.4219,375.6563 1078.6094,375.5469 Q1078.7969,375.4375 1079.0156,375.4375 Q1079.3906,375.4375 1079.625,375.6953 Q1079.8594,375.9531 1079.8594,376.5625 L1079.8594,378.0156 Q1079.8594,378.625 1079.625,378.8906 Q1079.3906,379.1563 1079.0156,379.1563 Q1078.6719,379.1563 1078.4688,378.9531 Q1078.2656,378.7656 1078.1563,378.25 Q1078.1094,377.8906 1077.9219,377.7031 Q1077.5938,377.3281 1076.9844,377.1094 Q1076.375,376.8906 1075.75,376.8906 Q1074.9844,376.8906 1074.3516,377.2188 Q1073.7188,377.5469 1073.2266,378.2969 Q1072.7344,379.0469 1072.7344,380.0781 L1072.7344,381.1719 Q1072.7344,382.4063 1073.625,383.2266 Q1074.5156,384.0469 1076.1094,384.0469 Q1077.0469,384.0469 1077.7031,383.7969 Q1078.0938,383.6406 1078.5156,383.2031 Q1078.7813,382.9375 1078.9297,382.8594 Q1079.0781,382.7813 1079.2813,382.7813 Q1079.6094,382.7813 1079.8672,383.0391 Q1080.125,383.2969 1080.125,383.6406 Q1080.125,383.9844 1079.7813,384.3906 Q1079.2813,384.9688 1078.4844,385.2969 Q1077.4063,385.75 1076.1094,385.75 Q1074.5938,385.75 1073.3906,385.125 Q1072.4063,384.625 1071.7188,383.5547 Q1071.0313,382.4844 1071.0313,381.2031 L1071.0313,380.0469 Q1071.0313,378.7188 1071.6484,377.5703 Q1072.2656,376.4219 1073.3594,375.8047 Q1074.4531,375.1875 1075.6875,375.1875 Q1076.4219,375.1875 1077.0703,375.3516 Q1077.7188,375.5156 1078.2656,375.875 Z " fill="#000000"/><text fill="#000000" font-family="sans-serif" font-size="14" lengthAdjust="spacing" textLength="172" x="1089.5" y="385.7285">Specification_Input_Screen</text><line style="stroke:#181818;stroke-width:0.5;" x1="1061.5" x2="1263.5" y1="396" y2="396"/><line style="stroke:#181818;stroke-width:0.5;" x1="1061.5" x2="1263.5" y1="404" y2="404"/></g><!--MD5=[90c6ebe732468946ec0398e76a10d1ef]
class Diagram_Input_Screen--><g id="elem_Diagram_Input_Screen"><rect fill="#F1F1F1" height="48" id="Diagram_Input_Screen" rx="2.5" ry="2.5" style="stroke:#181818;stroke-width:0.5;" width="177" x="1300" y="364"/><ellipse cx="1315" cy="380" fill="#ADD1B2" rx="11" ry="11" style="stroke:#181818;stroke-width:1.0;"/><path d="M1317.7656,375.875 Q1317.9219,375.6563 1318.1094,375.5469 Q1318.2969,375.4375 1318.5156,375.4375 Q1318.8906,375.4375 1319.125,375.6953 Q1319.3594,375.9531 1319.3594,376.5625 L1319.3594,378.0156 Q1319.3594,378.625 1319.125,378.8906 Q1318.8906,379.1563 1318.5156,379.1563 Q1318.1719,379.1563 1317.9688,378.9531 Q1317.7656,378.7656 1317.6563,378.25 Q1317.6094,377.8906 1317.4219,377.7031 Q1317.0938,377.3281 1316.4844,377.1094 Q1315.875,376.8906 1315.25,376.8906 Q1314.4844,376.8906 1313.8516,377.2188 Q1313.2188,377.5469 1312.7266,378.2969 Q1312.2344,379.0469 1312.2344,380.0781 L1312.2344,381.1719 Q1312.2344,382.4063 1313.125,383.2266 Q1314.0156,384.0469 1315.6094,384.0469 Q1316.5469,384.0469 1317.2031,383.7969 Q1317.5938,383.6406 1318.0156,383.2031 Q1318.2813,382.9375 1318.4297,382.8594 Q1318.5781,382.7813 1318.7813,382.7813 Q1319.1094,382.7813 1319.3672,383.0391 Q1319.625,383.2969 1319.625,383.6406 Q1319.625,383.9844 1319.2813,384.3906 Q1318.7813,384.9688 1317.9844,385.2969 Q1316.9063,385.75 1315.6094,385.75 Q1314.0938,385.75 1312.8906,385.125 Q1311.9063,384.625 1311.2188,383.5547 Q1310.5313,382.4844 1310.5313,381.2031 L1310.5313,380.0469 Q1310.5313,378.7188 1311.1484,377.5703 Q1311.7656,376.4219 1312.8594,375.8047 Q1313.9531,375.1875 1315.1875,375.1875 Q1315.9219,375.1875 1316.5703,375.3516 Q1317.2188,375.5156 1317.7656,375.875 Z " fill="#000000"/><text fill="#000000" font-family="sans-serif" font-size="14" lengthAdjust="spacing" textLength="145" x="1329" y="385.7285">Diagram_Input_Screen</text><line style="stroke:#181818;stroke-width:0.5;" x1="1301" x2="1476" y1="396" y2="396"/><line style="stroke:#181818;stroke-width:0.5;" x1="1301" x2="1476" y1="404" y2="404"/></g><!--MD5=[9b2c972d88164e06aff465ca5b1ef2ee]
class Home_Screen--><g id="elem_Home_Screen"><rect fill="#F1F1F1" height="48" id="Home_Screen" rx="2.5" ry="2.5" style="stroke:#181818;stroke-width:0.5;" width="121" x="1512" y="364"/><ellipse cx="1527" cy="380" fill="#ADD1B2" rx="11" ry="11" style="stroke:#181818;stroke-width:1.0;"/><path d="M1529.7656,375.875 Q1529.9219,375.6563 1530.1094,375.5469 Q1530.2969,375.4375 1530.5156,375.4375 Q1530.8906,375.4375 1531.125,375.6953 Q1531.3594,375.9531 1531.3594,376.5625 L1531.3594,378.0156 Q1531.3594,378.625 1531.125,378.8906 Q1530.8906,379.1563 1530.5156,379.1563 Q1530.1719,379.1563 1529.9688,378.9531 Q1529.7656,378.7656 1529.6563,378.25 Q1529.6094,377.8906 1529.4219,377.7031 Q1529.0938,377.3281 1528.4844,377.1094 Q1527.875,376.8906 1527.25,376.8906 Q1526.4844,376.8906 1525.8516,377.2188 Q1525.2188,377.5469 1524.7266,378.2969 Q1524.2344,379.0469 1524.2344,380.0781 L1524.2344,381.1719 Q1524.2344,382.4063 1525.125,383.2266 Q1526.0156,384.0469 1527.6094,384.0469 Q1528.5469,384.0469 1529.2031,383.7969 Q1529.5938,383.6406 1530.0156,383.2031 Q1530.2813,382.9375 1530.4297,382.8594 Q1530.5781,382.7813 1530.7813,382.7813 Q1531.1094,382.7813 1531.3672,383.0391 Q1531.625,383.2969 1531.625,383.6406 Q1531.625,383.9844 1531.2813,384.3906 Q1530.7813,384.9688 1529.9844,385.2969 Q1528.9063,385.75 1527.6094,385.75 Q1526.0938,385.75 1524.8906,385.125 Q1523.9063,384.625 1523.2188,383.5547 Q1522.5313,382.4844 1522.5313,381.2031 L1522.5313,380.0469 Q1522.5313,378.7188 1523.1484,377.5703 Q1523.7656,376.4219 1524.8594,375.8047 Q1525.9531,375.1875 1527.1875,375.1875 Q1527.9219,375.1875 1528.5703,375.3516 Q1529.2188,375.5156 1529.7656,375.875 Z " fill="#000000"/><text fill="#000000" font-family="sans-serif" font-size="14" lengthAdjust="spacing" textLength="89" x="1541" y="385.7285">Home_Screen</text><line style="stroke:#181818;stroke-width:0.5;" x1="1513" x2="1632" y1="396" y2="396"/><line style="stroke:#181818;stroke-width:0.5;" x1="1513" x2="1632" y1="404" y2="404"/></g><!--MD5=[bf249f093932018a67366a37f78ad7b6]
class Login_Screen--><g id="elem_Login_Screen"><rect fill="#F1F1F1" height="48" id="Login_Screen" rx="2.5" ry="2.5" style="stroke:#181818;stroke-width:0.5;" width="120" x="1668.5" y="364"/><ellipse cx="1683.5" cy="380" fill="#ADD1B2" rx="11" ry="11" style="stroke:#181818;stroke-width:1.0;"/><path d="M1686.2656,375.875 Q1686.4219,375.6563 1686.6094,375.5469 Q1686.7969,375.4375 1687.0156,375.4375 Q1687.3906,375.4375 1687.625,375.6953 Q1687.8594,375.9531 1687.8594,376.5625 L1687.8594,378.0156 Q1687.8594,378.625 1687.625,378.8906 Q1687.3906,379.1563 1687.0156,379.1563 Q1686.6719,379.1563 1686.4688,378.9531 Q1686.2656,378.7656 1686.1563,378.25 Q1686.1094,377.8906 1685.9219,377.7031 Q1685.5938,377.3281 1684.9844,377.1094 Q1684.375,376.8906 1683.75,376.8906 Q1682.9844,376.8906 1682.3516,377.2188 Q1681.7188,377.5469 1681.2266,378.2969 Q1680.7344,379.0469 1680.7344,380.0781 L1680.7344,381.1719 Q1680.7344,382.4063 1681.625,383.2266 Q1682.5156,384.0469 1684.1094,384.0469 Q1685.0469,384.0469 1685.7031,383.7969 Q1686.0938,383.6406 1686.5156,383.2031 Q1686.7813,382.9375 1686.9297,382.8594 Q1687.0781,382.7813 1687.2813,382.7813 Q1687.6094,382.7813 1687.8672,383.0391 Q1688.125,383.2969 1688.125,383.6406 Q1688.125,383.9844 1687.7813,384.3906 Q1687.2813,384.9688 1686.4844,385.2969 Q1685.4063,385.75 1684.1094,385.75 Q1682.5938,385.75 1681.3906,385.125 Q1680.4063,384.625 1679.7188,383.5547 Q1679.0313,382.4844 1679.0313,381.2031 L1679.0313,380.0469 Q1679.0313,378.7188 1679.6484,377.5703 Q1680.2656,376.4219 1681.3594,375.8047 Q1682.4531,375.1875 1683.6875,375.1875 Q1684.4219,375.1875 1685.0703,375.3516 Q1685.7188,375.5156 1686.2656,375.875 Z " fill="#000000"/><text fill="#000000" font-family="sans-serif" font-size="14" lengthAdjust="spacing" textLength="88" x="1697.5" y="385.7285">Login_Screen</text><line style="stroke:#181818;stroke-width:0.5;" x1="1669.5" x2="1787.5" y1="396" y2="396"/><line style="stroke:#181818;stroke-width:0.5;" x1="1669.5" x2="1787.5" y1="404" y2="404"/></g><!--MD5=[872d1a0f46bb077ab7687bb65aa3c04a]
class Signup_Screen--><g id="elem_Signup_Screen"><rect fill="#F1F1F1" height="48" id="Signup_Screen" rx="2.5" ry="2.5" style="stroke:#181818;stroke-width:0.5;" width="129" x="1824" y="364"/><ellipse cx="1839" cy="380" fill="#ADD1B2" rx="11" ry="11" style="stroke:#181818;stroke-width:1.0;"/><path d="M1841.7656,375.875 Q1841.9219,375.6563 1842.1094,375.5469 Q1842.2969,375.4375 1842.5156,375.4375 Q1842.8906,375.4375 1843.125,375.6953 Q1843.3594,375.9531 1843.3594,376.5625 L1843.3594,378.0156 Q1843.3594,378.625 1843.125,378.8906 Q1842.8906,379.1563 1842.5156,379.1563 Q1842.1719,379.1563 1841.9688,378.9531 Q1841.7656,378.7656 1841.6563,378.25 Q1841.6094,377.8906 1841.4219,377.7031 Q1841.0938,377.3281 1840.4844,377.1094 Q1839.875,376.8906 1839.25,376.8906 Q1838.4844,376.8906 1837.8516,377.2188 Q1837.2188,377.5469 1836.7266,378.2969 Q1836.2344,379.0469 1836.2344,380.0781 L1836.2344,381.1719 Q1836.2344,382.4063 1837.125,383.2266 Q1838.0156,384.0469 1839.6094,384.0469 Q1840.5469,384.0469 1841.2031,383.7969 Q1841.5938,383.6406 1842.0156,383.2031 Q1842.2813,382.9375 1842.4297,382.8594 Q1842.5781,382.7813 1842.7813,382.7813 Q1843.1094,382.7813 1843.3672,383.0391 Q1843.625,383.2969 1843.625,383.6406 Q1843.625,383.9844 1843.2813,384.3906 Q1842.7813,384.9688 1841.9844,385.2969 Q1840.9063,385.75 1839.6094,385.75 Q1838.0938,385.75 1836.8906,385.125 Q1835.9063,384.625 1835.2188,383.5547 Q1834.5313,382.4844 1834.5313,381.2031 L1834.5313,380.0469 Q1834.5313,378.7188 1835.1484,377.5703 Q1835.7656,376.4219 1836.8594,375.8047 Q1837.9531,375.1875 1839.1875,375.1875 Q1839.9219,375.1875 1840.5703,375.3516 Q1841.2188,375.5156 1841.7656,375.875 Z " fill="#000000"/><text fill="#000000" font-family="sans-serif" font-size="14" lengthAdjust="spacing" textLength="97" x="1853" y="385.7285">Signup_Screen</text><line style="stroke:#181818;stroke-width:0.5;" x1="1825" x2="1952" y1="396" y2="396"/><line style="stroke:#181818;stroke-width:0.5;" x1="1825" x2="1952" y1="404" y2="404"/></g><!--MD5=[413a024d5877677d4d8255f7b5f9a18f]
class Tabel_Screen--><g id="elem_Tabel_Screen"><rect fill="#F1F1F1" height="48" id="Tabel_Screen" rx="2.5" ry="2.5" style="stroke:#181818;stroke-width:0.5;" width="121" x="1988" y="364"/><ellipse cx="2003" cy="380" fill="#ADD1B2" rx="11" ry="11" style="stroke:#181818;stroke-width:1.0;"/><path d="M2005.7656,375.875 Q2005.9219,375.6563 2006.1094,375.5469 Q2006.2969,375.4375 2006.5156,375.4375 Q2006.8906,375.4375 2007.125,375.6953 Q2007.3594,375.9531 2007.3594,376.5625 L2007.3594,378.0156 Q2007.3594,378.625 2007.125,378.8906 Q2006.8906,379.1563 2006.5156,379.1563 Q2006.1719,379.1563 2005.9688,378.9531 Q2005.7656,378.7656 2005.6563,378.25 Q2005.6094,377.8906 2005.4219,377.7031 Q2005.0938,377.3281 2004.4844,377.1094 Q2003.875,376.8906 2003.25,376.8906 Q2002.4844,376.8906 2001.8516,377.2188 Q2001.2188,377.5469 2000.7266,378.2969 Q2000.2344,379.0469 2000.2344,380.0781 L2000.2344,381.1719 Q2000.2344,382.4063 2001.125,383.2266 Q2002.0156,384.0469 2003.6094,384.0469 Q2004.5469,384.0469 2005.2031,383.7969 Q2005.5938,383.6406 2006.0156,383.2031 Q2006.2813,382.9375 2006.4297,382.8594 Q2006.5781,382.7813 2006.7813,382.7813 Q2007.1094,382.7813 2007.3672,383.0391 Q2007.625,383.2969 2007.625,383.6406 Q2007.625,383.9844 2007.2813,384.3906 Q2006.7813,384.9688 2005.9844,385.2969 Q2004.9063,385.75 2003.6094,385.75 Q2002.0938,385.75 2000.8906,385.125 Q1999.9063,384.625 1999.2188,383.5547 Q1998.5313,382.4844 1998.5313,381.2031 L1998.5313,380.0469 Q1998.5313,378.7188 1999.1484,377.5703 Q1999.7656,376.4219 2000.8594,375.8047 Q2001.9531,375.1875 2003.1875,375.1875 Q2003.9219,375.1875 2004.5703,375.3516 Q2005.2188,375.5156 2005.7656,375.875 Z " fill="#000000"/><text fill="#000000" font-family="sans-serif" font-size="14" lengthAdjust="spacing" textLength="89" x="2017" y="385.7285">Tabel_Screen</text><line style="stroke:#181818;stroke-width:0.5;" x1="1989" x2="2108" y1="396" y2="396"/><line style="stroke:#181818;stroke-width:0.5;" x1="1989" x2="2108" y1="404" y2="404"/></g><!--MD5=[3fd616f346a44cd59a91eb10b19e157c]
class User--><g id="elem_User"><rect codeLine="24" fill="#F1F1F1" height="100.8281" id="User" rx="2.5" ry="2.5" style="stroke:#181818;stroke-width:0.5;" width="121" x="7" y="337.5"/><ellipse cx="49" cy="353.5" fill="#ADD1B2" rx="11" ry="11" style="stroke:#181818;stroke-width:1.0;"/><path d="M47.8594,354.2969 L47.8594,356.7969 L52.1875,356.7969 L52.1875,355.875 Q52.1875,355.2656 52.4297,355 Q52.6719,354.7344 53.0469,354.7344 Q53.4219,354.7344 53.6563,355 Q53.8906,355.2656 53.8906,355.875 L53.8906,358.5 L45.8906,358.5 Q45.2656,358.5 45.0078,358.2656 Q44.75,358.0313 44.75,357.6406 Q44.75,357.2656 45.0156,357.0313 Q45.2813,356.7969 45.8906,356.7969 L46.1563,356.7969 L46.1563,350.1406 L45.8906,350.1406 Q45.2656,350.1406 45.0078,349.9063 Q44.75,349.6719 44.75,349.2813 Q44.75,348.9063 45.0078,348.6719 Q45.2656,348.4375 45.8906,348.4375 L53.5156,348.4375 L53.5156,351.0313 Q53.5156,351.6406 53.2891,351.8984 Q53.0625,352.1563 52.6719,352.1563 Q52.2969,352.1563 52.0625,351.8984 Q51.8281,351.6406 51.8281,351.0313 L51.8281,350.1406 L47.8594,350.1406 L47.8594,352.5938 L49.3438,352.5938 Q49.3438,351.9375 49.4688,351.75 Q49.7344,351.3438 50.2031,351.3438 Q50.5781,351.3438 50.8125,351.6016 Q51.0469,351.8594 51.0469,352.4688 L51.0469,354.4375 Q51.0469,354.9844 50.9219,355.1719 Q50.6563,355.5625 50.2031,355.5625 Q49.7344,355.5625 49.4688,355.1563 Q49.3438,354.9688 49.3438,354.2969 L47.8594,354.2969 Z " fill="#000000"/><text fill="#000000" font-family="sans-serif" font-size="14" lengthAdjust="spacing" textLength="29" x="69" y="359.2285">User</text><line style="stroke:#181818;stroke-width:0.5;" x1="8" x2="127" y1="369.5" y2="369.5"/><text fill="#000000" font-family="sans-serif" font-size="14" lengthAdjust="spacing" textLength="96" x="13" y="388.0332">user_id : String</text><text fill="#000000" font-family="sans-serif" font-size="14" lengthAdjust="spacing" textLength="82" x="13" y="405.6426">email : String</text><text fill="#000000" font-family="sans-serif" font-size="14" lengthAdjust="spacing" textLength="109" x="13" y="423.252">password : String</text><line style="stroke:#181818;stroke-width:0.5;" x1="8" x2="127" y1="430.3281" y2="430.3281"/></g><!--MD5=[79d378210367c0c6ec62ef762ddfbd1b]
class Project--><g id="elem_Project"><rect codeLine="31" fill="#F1F1F1" height="100.8281" id="Project" rx="2.5" ry="2.5" style="stroke:#181818;stroke-width:0.5;" width="142" x="163.5" y="337.5"/><ellipse cx="208.25" cy="353.5" fill="#ADD1B2" rx="11" ry="11" style="stroke:#181818;stroke-width:1.0;"/><path d="M207.1094,354.2969 L207.1094,356.7969 L211.4375,356.7969 L211.4375,355.875 Q211.4375,355.2656 211.6797,355 Q211.9219,354.7344 212.2969,354.7344 Q212.6719,354.7344 212.9063,355 Q213.1406,355.2656 213.1406,355.875 L213.1406,358.5 L205.1406,358.5 Q204.5156,358.5 204.2578,358.2656 Q204,358.0313 204,357.6406 Q204,357.2656 204.2656,357.0313 Q204.5313,356.7969 205.1406,356.7969 L205.4063,356.7969 L205.4063,350.1406 L205.1406,350.1406 Q204.5156,350.1406 204.2578,349.9063 Q204,349.6719 204,349.2813 Q204,348.9063 204.2578,348.6719 Q204.5156,348.4375 205.1406,348.4375 L212.7656,348.4375 L212.7656,351.0313 Q212.7656,351.6406 212.5391,351.8984 Q212.3125,352.1563 211.9219,352.1563 Q211.5469,352.1563 211.3125,351.8984 Q211.0781,351.6406 211.0781,351.0313 L211.0781,350.1406 L207.1094,350.1406 L207.1094,352.5938 L208.5938,352.5938 Q208.5938,351.9375 208.7188,351.75 Q208.9844,351.3438 209.4531,351.3438 Q209.8281,351.3438 210.0625,351.6016 Q210.2969,351.8594 210.2969,352.4688 L210.2969,354.4375 Q210.2969,354.9844 210.1719,355.1719 Q209.9063,355.5625 209.4531,355.5625 Q208.9844,355.5625 208.7188,355.1563 Q208.5938,354.9688 208.5938,354.2969 L207.1094,354.2969 Z " fill="#000000"/><text fill="#000000" font-family="sans-serif" font-size="14" lengthAdjust="spacing" textLength="44" x="228.75" y="359.2285">Project</text><line style="stroke:#181818;stroke-width:0.5;" x1="164.5" x2="304.5" y1="369.5" y2="369.5"/><text fill="#000000" font-family="sans-serif" font-size="14" lengthAdjust="spacing" textLength="119" x="169.5" y="388.0332">id_diagram : String</text><text fill="#000000" font-family="sans-serif" font-size="14" lengthAdjust="spacing" textLength="130" x="169.5" y="405.6426">judul_project : String</text><text fill="#000000" font-family="sans-serif" font-size="14" lengthAdjust="spacing" textLength="107" x="169.5" y="423.252">img_path : String</text><line style="stroke:#181818;stroke-width:0.5;" x1="164.5" x2="304.5" y1="430.3281" y2="430.3281"/></g><!--MD5=[e42a00b6fc1785947c4c795118418543]
class Spec--><g id="elem_Spec"><rect codeLine="37" fill="#F1F1F1" height="118.4375" id="Spec" rx="2.5" ry="2.5" style="stroke:#181818;stroke-width:0.5;" width="144" x="340.5" y="329"/><ellipse cx="392.25" cy="345" fill="#ADD1B2" rx="11" ry="11" style="stroke:#181818;stroke-width:1.0;"/><path d="M391.1094,345.7969 L391.1094,348.2969 L395.4375,348.2969 L395.4375,347.375 Q395.4375,346.7656 395.6797,346.5 Q395.9219,346.2344 396.2969,346.2344 Q396.6719,346.2344 396.9063,346.5 Q397.1406,346.7656 397.1406,347.375 L397.1406,350 L389.1406,350 Q388.5156,350 388.2578,349.7656 Q388,349.5313 388,349.1406 Q388,348.7656 388.2656,348.5313 Q388.5313,348.2969 389.1406,348.2969 L389.4063,348.2969 L389.4063,341.6406 L389.1406,341.6406 Q388.5156,341.6406 388.2578,341.4063 Q388,341.1719 388,340.7813 Q388,340.4063 388.2578,340.1719 Q388.5156,339.9375 389.1406,339.9375 L396.7656,339.9375 L396.7656,342.5313 Q396.7656,343.1406 396.5391,343.3984 Q396.3125,343.6563 395.9219,343.6563 Q395.5469,343.6563 395.3125,343.3984 Q395.0781,343.1406 395.0781,342.5313 L395.0781,341.6406 L391.1094,341.6406 L391.1094,344.0938 L392.5938,344.0938 Q392.5938,343.4375 392.7188,343.25 Q392.9844,342.8438 393.4531,342.8438 Q393.8281,342.8438 394.0625,343.1016 Q394.2969,343.3594 394.2969,343.9688 L394.2969,345.9375 Q394.2969,346.4844 394.1719,346.6719 Q393.9063,347.0625 393.4531,347.0625 Q392.9844,347.0625 392.7188,346.6563 Q392.5938,346.4688 392.5938,345.7969 L391.1094,345.7969 Z " fill="#000000"/><text fill="#000000" font-family="sans-serif" font-size="14" lengthAdjust="spacing" textLength="32" x="412.75" y="350.7285">Spec</text><line style="stroke:#181818;stroke-width:0.5;" x1="341.5" x2="483.5" y1="361" y2="361"/><text fill="#000000" font-family="sans-serif" font-size="14" lengthAdjust="spacing" textLength="98" x="346.5" y="379.5332">spec_id : String</text><text fill="#000000" font-family="sans-serif" font-size="14" lengthAdjust="spacing" textLength="97" x="346.5" y="397.1426">deskrisi : String</text><text fill="#000000" font-family="sans-serif" font-size="14" lengthAdjust="spacing" textLength="129" x="346.5" y="414.752">kondisi_awal : String</text><text fill="#000000" font-family="sans-serif" font-size="14" lengthAdjust="spacing" textLength="132" x="346.5" y="432.3613">kondisi_akhir : String</text><line style="stroke:#181818;stroke-width:0.5;" x1="341.5" x2="483.5" y1="439.4375" y2="439.4375"/></g><!--MD5=[b1bb175215369b120bea402f551c40c8]
class Skenario--><g id="elem_Skenario"><rect codeLine="44" fill="#F1F1F1" height="118.4375" id="Skenario" rx="2.5" ry="2.5" style="stroke:#181818;stroke-width:0.5;" width="134" x="519.5" y="329"/><ellipse cx="555.2" cy="345" fill="#ADD1B2" rx="11" ry="11" style="stroke:#181818;stroke-width:1.0;"/><path d="M554.0594,345.7969 L554.0594,348.2969 L558.3875,348.2969 L558.3875,347.375 Q558.3875,346.7656 558.6297,346.5 Q558.8719,346.2344 559.2469,346.2344 Q559.6219,346.2344 559.8563,346.5 Q560.0906,346.7656 560.0906,347.375 L560.0906,350 L552.0906,350 Q551.4656,350 551.2078,349.7656 Q550.95,349.5313 550.95,349.1406 Q550.95,348.7656 551.2156,348.5313 Q551.4813,348.2969 552.0906,348.2969 L552.3563,348.2969 L552.3563,341.6406 L552.0906,341.6406 Q551.4656,341.6406 551.2078,341.4063 Q550.95,341.1719 550.95,340.7813 Q550.95,340.4063 551.2078,340.1719 Q551.4656,339.9375 552.0906,339.9375 L559.7156,339.9375 L559.7156,342.5313 Q559.7156,343.1406 559.4891,343.3984 Q559.2625,343.6563 558.8719,343.6563 Q558.4969,343.6563 558.2625,343.3984 Q558.0281,343.1406 558.0281,342.5313 L558.0281,341.6406 L554.0594,341.6406 L554.0594,344.0938 L555.5438,344.0938 Q555.5438,343.4375 555.6688,343.25 Q555.9344,342.8438 556.4031,342.8438 Q556.7781,342.8438 557.0125,343.1016 Q557.2469,343.3594 557.2469,343.9688 L557.2469,345.9375 Q557.2469,346.4844 557.1219,346.6719 Q556.8563,347.0625 556.4031,347.0625 Q555.9344,347.0625 555.6688,346.6563 Q555.5438,346.4688 555.5438,345.7969 L554.0594,345.7969 Z " fill="#000000"/><text fill="#000000" font-family="sans-serif" font-size="14" lengthAdjust="spacing" textLength="56" x="573.8" y="350.7285">Skenario</text><line style="stroke:#181818;stroke-width:0.5;" x1="520.5" x2="652.5" y1="361" y2="361"/><text fill="#000000" font-family="sans-serif" font-size="14" lengthAdjust="spacing" textLength="122" x="525.5" y="379.5332">id_skenario : String</text><text fill="#000000" font-family="sans-serif" font-size="14" lengthAdjust="spacing" textLength="76" x="525.5" y="397.1426">step : String</text><text fill="#000000" font-family="sans-serif" font-size="14" lengthAdjust="spacing" textLength="106" x="525.5" y="414.752">isactor : Boolean</text><text fill="#000000" font-family="sans-serif" font-size="14" lengthAdjust="spacing" textLength="119" x="525.5" y="432.3613">category : Boolean</text><line style="stroke:#181818;stroke-width:0.5;" x1="520.5" x2="652.5" y1="439.4375" y2="439.4375"/></g><!--MD5=[cf381757fb6a7ef65e9baa06a1701d5f]
class Use_Case--><g id="elem_Use_Case"><rect codeLine="51" fill="#F1F1F1" height="83.2188" id="Use_Case" rx="2.5" ry="2.5" style="stroke:#181818;stroke-width:0.5;" width="133" x="689" y="346.5"/><ellipse cx="720.2" cy="362.5" fill="#ADD1B2" rx="11" ry="11" style="stroke:#181818;stroke-width:1.0;"/><path d="M719.0594,363.2969 L719.0594,365.7969 L723.3875,365.7969 L723.3875,364.875 Q723.3875,364.2656 723.6297,364 Q723.8719,363.7344 724.2469,363.7344 Q724.6219,363.7344 724.8563,364 Q725.0906,364.2656 725.0906,364.875 L725.0906,367.5 L717.0906,367.5 Q716.4656,367.5 716.2078,367.2656 Q715.95,367.0313 715.95,366.6406 Q715.95,366.2656 716.2156,366.0313 Q716.4813,365.7969 717.0906,365.7969 L717.3563,365.7969 L717.3563,359.1406 L717.0906,359.1406 Q716.4656,359.1406 716.2078,358.9063 Q715.95,358.6719 715.95,358.2813 Q715.95,357.9063 716.2078,357.6719 Q716.4656,357.4375 717.0906,357.4375 L724.7156,357.4375 L724.7156,360.0313 Q724.7156,360.6406 724.4891,360.8984 Q724.2625,361.1563 723.8719,361.1563 Q723.4969,361.1563 723.2625,360.8984 Q723.0281,360.6406 723.0281,360.0313 L723.0281,359.1406 L719.0594,359.1406 L719.0594,361.5938 L720.5438,361.5938 Q720.5438,360.9375 720.6688,360.75 Q720.9344,360.3438 721.4031,360.3438 Q721.7781,360.3438 722.0125,360.6016 Q722.2469,360.8594 722.2469,361.4688 L722.2469,363.4375 Q722.2469,363.9844 722.1219,364.1719 Q721.8563,364.5625 721.4031,364.5625 Q720.9344,364.5625 720.6688,364.1563 Q720.5438,363.9688 720.5438,363.2969 L719.0594,363.2969 Z " fill="#000000"/><text fill="#000000" font-family="sans-serif" font-size="14" lengthAdjust="spacing" textLength="65" x="737.8" y="368.2285">Use_Case</text><line style="stroke:#181818;stroke-width:0.5;" x1="690" x2="821" y1="378.5" y2="378.5"/><text fill="#000000" font-family="sans-serif" font-size="14" lengthAdjust="spacing" textLength="121" x="695" y="397.0332">id_usecase : String</text><text fill="#000000" font-family="sans-serif" font-size="14" lengthAdjust="spacing" textLength="110" x="695" y="414.6426">use_case : String</text><line style="stroke:#181818;stroke-width:0.5;" x1="690" x2="821" y1="421.7188" y2="421.7188"/></g><!--MD5=[100886427982af6bdfaee1a016758a5b]
class Aktor--><g id="elem_Aktor"><rect codeLine="56" fill="#F1F1F1" height="100.8281" id="Aktor" rx="2.5" ry="2.5" style="stroke:#181818;stroke-width:0.5;" width="168" x="857.5" y="337.5"/><ellipse cx="920.75" cy="353.5" fill="#ADD1B2" rx="11" ry="11" style="stroke:#181818;stroke-width:1.0;"/><path d="M919.6094,354.2969 L919.6094,356.7969 L923.9375,356.7969 L923.9375,355.875 Q923.9375,355.2656 924.1797,355 Q924.4219,354.7344 924.7969,354.7344 Q925.1719,354.7344 925.4063,355 Q925.6406,355.2656 925.6406,355.875 L925.6406,358.5 L917.6406,358.5 Q917.0156,358.5 916.7578,358.2656 Q916.5,358.0313 916.5,357.6406 Q916.5,357.2656 916.7656,357.0313 Q917.0313,356.7969 917.6406,356.7969 L917.9063,356.7969 L917.9063,350.1406 L917.6406,350.1406 Q917.0156,350.1406 916.7578,349.9063 Q916.5,349.6719 916.5,349.2813 Q916.5,348.9063 916.7578,348.6719 Q917.0156,348.4375 917.6406,348.4375 L925.2656,348.4375 L925.2656,351.0313 Q925.2656,351.6406 925.0391,351.8984 Q924.8125,352.1563 924.4219,352.1563 Q924.0469,352.1563 923.8125,351.8984 Q923.5781,351.6406 923.5781,351.0313 L923.5781,350.1406 L919.6094,350.1406 L919.6094,352.5938 L921.0938,352.5938 Q921.0938,351.9375 921.2188,351.75 Q921.4844,351.3438 921.9531,351.3438 Q922.3281,351.3438 922.5625,351.6016 Q922.7969,351.8594 922.7969,352.4688 L922.7969,354.4375 Q922.7969,354.9844 922.6719,355.1719 Q922.4063,355.5625 921.9531,355.5625 Q921.4844,355.5625 921.2188,355.1563 Q921.0938,354.9688 921.0938,354.2969 L919.6094,354.2969 Z " fill="#000000"/><text fill="#000000" font-family="sans-serif" font-size="14" lengthAdjust="spacing" textLength="33" x="941.25" y="359.2285">Aktor</text><line style="stroke:#181818;stroke-width:0.5;" x1="858.5" x2="1024.5" y1="369.5" y2="369.5"/><text fill="#000000" font-family="sans-serif" font-size="14" lengthAdjust="spacing" textLength="100" x="863.5" y="388.0332">id_aktor : String</text><text fill="#000000" font-family="sans-serif" font-size="14" lengthAdjust="spacing" textLength="124" x="863.5" y="405.6426">nama_aktor : String</text><text fill="#000000" font-family="sans-serif" font-size="14" lengthAdjust="spacing" textLength="156" x="863.5" y="423.252">deskripsi_project : String</text><line style="stroke:#181818;stroke-width:0.5;" x1="858.5" x2="1024.5" y1="430.3281" y2="430.3281"/></g><!--MD5=[87cc5c822ddb5d5f7aed1516a7ae9c3d]
class User_Controller--><g id="elem_User_Controller"><rect codeLine="70" fill="#F1F1F1" height="136.0469" id="User_Controller" rx="2.5" ry="2.5" style="stroke:#181818;stroke-width:0.5;" width="267" x="1657" y="133"/><ellipse cx="1736.75" cy="149" fill="#ADD1B2" rx="11" ry="11" style="stroke:#181818;stroke-width:1.0;"/><path d="M1739.5156,144.875 Q1739.6719,144.6563 1739.8594,144.5469 Q1740.0469,144.4375 1740.2656,144.4375 Q1740.6406,144.4375 1740.875,144.6953 Q1741.1094,144.9531 1741.1094,145.5625 L1741.1094,147.0156 Q1741.1094,147.625 1740.875,147.8906 Q1740.6406,148.1563 1740.2656,148.1563 Q1739.9219,148.1563 1739.7188,147.9531 Q1739.5156,147.7656 1739.4063,147.25 Q1739.3594,146.8906 1739.1719,146.7031 Q1738.8438,146.3281 1738.2344,146.1094 Q1737.625,145.8906 1737,145.8906 Q1736.2344,145.8906 1735.6016,146.2188 Q1734.9688,146.5469 1734.4766,147.2969 Q1733.9844,148.0469 1733.9844,149.0781 L1733.9844,150.1719 Q1733.9844,151.4063 1734.875,152.2266 Q1735.7656,153.0469 1737.3594,153.0469 Q1738.2969,153.0469 1738.9531,152.7969 Q1739.3438,152.6406 1739.7656,152.2031 Q1740.0313,151.9375 1740.1797,151.8594 Q1740.3281,151.7813 1740.5313,151.7813 Q1740.8594,151.7813 1741.1172,152.0391 Q1741.375,152.2969 1741.375,152.6406 Q1741.375,152.9844 1741.0313,153.3906 Q1740.5313,153.9688 1739.7344,154.2969 Q1738.6563,154.75 1737.3594,154.75 Q1735.8438,154.75 1734.6406,154.125 Q1733.6563,153.625 1732.9688,152.5547 Q1732.2813,151.4844 1732.2813,150.2031 L1732.2813,149.0469 Q1732.2813,147.7188 1732.8984,146.5703 Q1733.5156,145.4219 1734.6094,144.8047 Q1735.7031,144.1875 1736.9375,144.1875 Q1737.6719,144.1875 1738.3203,144.3516 Q1738.9688,144.5156 1739.5156,144.875 Z " fill="#000000"/><text fill="#000000" font-family="sans-serif" font-size="14" lengthAdjust="spacing" textLength="99" x="1757.25" y="154.7285">User_Controller</text><line style="stroke:#181818;stroke-width:0.5;" x1="1658" x2="1923" y1="165" y2="165"/><line style="stroke:#181818;stroke-width:0.5;" x1="1658" x2="1923" y1="173" y2="173"/><ellipse cx="1668" cy="187.3047" fill="#84BE84" rx="3" ry="3" style="stroke:#038048;stroke-width:1.0;"/><text fill="#000000" font-family="sans-serif" font-size="14" lengthAdjust="spacing" textLength="117" x="1677" y="191.5332">showLogin() : Void</text><ellipse cx="1668" cy="204.9141" fill="#84BE84" rx="3" ry="3" style="stroke:#038048;stroke-width:1.0;"/><text fill="#000000" font-family="sans-serif" font-size="14" lengthAdjust="spacing" textLength="126" x="1677" y="209.1426">showSignup() : Void</text><ellipse cx="1668" cy="222.5234" fill="#84BE84" rx="3" ry="3" style="stroke:#038048;stroke-width:1.0;"/><text fill="#000000" font-family="sans-serif" font-size="14" lengthAdjust="spacing" textLength="241" x="1677" y="226.752">authenticate(request : Request) : Void</text><ellipse cx="1668" cy="240.1328" fill="#84BE84" rx="3" ry="3" style="stroke:#038048;stroke-width:1.0;"/><text fill="#000000" font-family="sans-serif" font-size="14" lengthAdjust="spacing" textLength="224" x="1677" y="244.3613">storeUser(request : Request) : Void</text><ellipse cx="1668" cy="257.7422" fill="#84BE84" rx="3" ry="3" style="stroke:#038048;stroke-width:1.0;"/><text fill="#000000" font-family="sans-serif" font-size="14" lengthAdjust="spacing" textLength="173" x="1677" y="261.9707">detail(idUser : String) : Void</text></g><!--MD5=[48dc6a47c7c993941cec3813d1fc3097]
class Diagram_Controller--><g id="elem_Diagram_Controller"><rect codeLine="78" fill="#F1F1F1" height="83.2188" id="Diagram_Controller" rx="2.5" ry="2.5" style="stroke:#181818;stroke-width:0.5;" width="274" x="1959.5" y="159.5"/><ellipse cx="2030.75" cy="175.5" fill="#ADD1B2" rx="11" ry="11" style="stroke:#181818;stroke-width:1.0;"/><path d="M2033.5156,171.375 Q2033.6719,171.1563 2033.8594,171.0469 Q2034.0469,170.9375 2034.2656,170.9375 Q2034.6406,170.9375 2034.875,171.1953 Q2035.1094,171.4531 2035.1094,172.0625 L2035.1094,173.5156 Q2035.1094,174.125 2034.875,174.3906 Q2034.6406,174.6563 2034.2656,174.6563 Q2033.9219,174.6563 2033.7188,174.4531 Q2033.5156,174.2656 2033.4063,173.75 Q2033.3594,173.3906 2033.1719,173.2031 Q2032.8438,172.8281 2032.2344,172.6094 Q2031.625,172.3906 2031,172.3906 Q2030.2344,172.3906 2029.6016,172.7188 Q2028.9688,173.0469 2028.4766,173.7969 Q2027.9844,174.5469 2027.9844,175.5781 L2027.9844,176.6719 Q2027.9844,177.9063 2028.875,178.7266 Q2029.7656,179.5469 2031.3594,179.5469 Q2032.2969,179.5469 2032.9531,179.2969 Q2033.3438,179.1406 2033.7656,178.7031 Q2034.0313,178.4375 2034.1797,178.3594 Q2034.3281,178.2813 2034.5313,178.2813 Q2034.8594,178.2813 2035.1172,178.5391 Q2035.375,178.7969 2035.375,179.1406 Q2035.375,179.4844 2035.0313,179.8906 Q2034.5313,180.4688 2033.7344,180.7969 Q2032.6563,181.25 2031.3594,181.25 Q2029.8438,181.25 2028.6406,180.625 Q2027.6563,180.125 2026.9688,179.0547 Q2026.2813,177.9844 2026.2813,176.7031 L2026.2813,175.5469 Q2026.2813,174.2188 2026.8984,173.0703 Q2027.5156,171.9219 2028.6094,171.3047 Q2029.7031,170.6875 2030.9375,170.6875 Q2031.6719,170.6875 2032.3203,170.8516 Q2032.9688,171.0156 2033.5156,171.375 Z " fill="#000000"/><text fill="#000000" font-family="sans-serif" font-size="14" lengthAdjust="spacing" textLength="123" x="2051.25" y="181.2285">Diagram_Controller</text><line style="stroke:#181818;stroke-width:0.5;" x1="1960.5" x2="2232.5" y1="191.5" y2="191.5"/><line style="stroke:#181818;stroke-width:0.5;" x1="1960.5" x2="2232.5" y1="199.5" y2="199.5"/><ellipse cx="1970.5" cy="213.8047" fill="#84BE84" rx="3" ry="3" style="stroke:#038048;stroke-width:1.0;"/><text fill="#000000" font-family="sans-serif" font-size="14" lengthAdjust="spacing" textLength="143" x="1979.5" y="218.0332">createDiagram() : Void</text><ellipse cx="1970.5" cy="231.4141" fill="#84BE84" rx="3" ry="3" style="stroke:#038048;stroke-width:1.0;"/><text fill="#000000" font-family="sans-serif" font-size="14" lengthAdjust="spacing" textLength="248" x="1979.5" y="235.6426">storeDiagram(request : Request) : Void</text></g><!--MD5=[b2191bc161f01058da67fdc0418ef9c1]
class Spec_Controller--><g id="elem_Spec_Controller"><rect codeLine="83" fill="#F1F1F1" height="83.2188" id="Spec_Controller" rx="2.5" ry="2.5" style="stroke:#181818;stroke-width:0.5;" width="253" x="2269" y="159.5"/><ellipse cx="2340.25" cy="175.5" fill="#ADD1B2" rx="11" ry="11" style="stroke:#181818;stroke-width:1.0;"/><path d="M2343.0156,171.375 Q2343.1719,171.1563 2343.3594,171.0469 Q2343.5469,170.9375 2343.7656,170.9375 Q2344.1406,170.9375 2344.375,171.1953 Q2344.6094,171.4531 2344.6094,172.0625 L2344.6094,173.5156 Q2344.6094,174.125 2344.375,174.3906 Q2344.1406,174.6563 2343.7656,174.6563 Q2343.4219,174.6563 2343.2188,174.4531 Q2343.0156,174.2656 2342.9063,173.75 Q2342.8594,173.3906 2342.6719,173.2031 Q2342.3438,172.8281 2341.7344,172.6094 Q2341.125,172.3906 2340.5,172.3906 Q2339.7344,172.3906 2339.1016,172.7188 Q2338.4688,173.0469 2337.9766,173.7969 Q2337.4844,174.5469 2337.4844,175.5781 L2337.4844,176.6719 Q2337.4844,177.9063 2338.375,178.7266 Q2339.2656,179.5469 2340.8594,179.5469 Q2341.7969,179.5469 2342.4531,179.2969 Q2342.8438,179.1406 2343.2656,178.7031 Q2343.5313,178.4375 2343.6797,178.3594 Q2343.8281,178.2813 2344.0313,178.2813 Q2344.3594,178.2813 2344.6172,178.5391 Q2344.875,178.7969 2344.875,179.1406 Q2344.875,179.4844 2344.5313,179.8906 Q2344.0313,180.4688 2343.2344,180.7969 Q2342.1563,181.25 2340.8594,181.25 Q2339.3438,181.25 2338.1406,180.625 Q2337.1563,180.125 2336.4688,179.0547 Q2335.7813,177.9844 2335.7813,176.7031 L2335.7813,175.5469 Q2335.7813,174.2188 2336.3984,173.0703 Q2337.0156,171.9219 2338.1094,171.3047 Q2339.2031,170.6875 2340.4375,170.6875 Q2341.1719,170.6875 2341.8203,170.8516 Q2342.4688,171.0156 2343.0156,171.375 Z " fill="#000000"/><text fill="#000000" font-family="sans-serif" font-size="14" lengthAdjust="spacing" textLength="102" x="2360.75" y="181.2285">Spec_Controller</text><line style="stroke:#181818;stroke-width:0.5;" x1="2270" x2="2521" y1="191.5" y2="191.5"/><line style="stroke:#181818;stroke-width:0.5;" x1="2270" x2="2521" y1="199.5" y2="199.5"/><ellipse cx="2280" cy="213.8047" fill="#84BE84" rx="3" ry="3" style="stroke:#038048;stroke-width:1.0;"/><text fill="#000000" font-family="sans-serif" font-size="14" lengthAdjust="spacing" textLength="122" x="2289" y="218.0332">createSpec() : Void</text><ellipse cx="2280" cy="231.4141" fill="#84BE84" rx="3" ry="3" style="stroke:#038048;stroke-width:1.0;"/><text fill="#000000" font-family="sans-serif" font-size="14" lengthAdjust="spacing" textLength="227" x="2289" y="235.6426">storeSpec(request : Request) : Void</text></g><!--MD5=[4a4684c9274fcf907b7d30383e233ad8]
class Project_Controller--><g id="elem_Project_Controller"><rect codeLine="88" fill="#F1F1F1" height="83.2188" id="Project_Controller" rx="2.5" ry="2.5" style="stroke:#181818;stroke-width:0.5;" width="258" x="2557.5" y="159.5"/><ellipse cx="2625.25" cy="175.5" fill="#ADD1B2" rx="11" ry="11" style="stroke:#181818;stroke-width:1.0;"/><path d="M2628.0156,171.375 Q2628.1719,171.1563 2628.3594,171.0469 Q2628.5469,170.9375 2628.7656,170.9375 Q2629.1406,170.9375 2629.375,171.1953 Q2629.6094,171.4531 2629.6094,172.0625 L2629.6094,173.5156 Q2629.6094,174.125 2629.375,174.3906 Q2629.1406,174.6563 2628.7656,174.6563 Q2628.4219,174.6563 2628.2188,174.4531 Q2628.0156,174.2656 2627.9063,173.75 Q2627.8594,173.3906 2627.6719,173.2031 Q2627.3438,172.8281 2626.7344,172.6094 Q2626.125,172.3906 2625.5,172.3906 Q2624.7344,172.3906 2624.1016,172.7188 Q2623.4688,173.0469 2622.9766,173.7969 Q2622.4844,174.5469 2622.4844,175.5781 L2622.4844,176.6719 Q2622.4844,177.9063 2623.375,178.7266 Q2624.2656,179.5469 2625.8594,179.5469 Q2626.7969,179.5469 2627.4531,179.2969 Q2627.8438,179.1406 2628.2656,178.7031 Q2628.5313,178.4375 2628.6797,178.3594 Q2628.8281,178.2813 2629.0313,178.2813 Q2629.3594,178.2813 2629.6172,178.5391 Q2629.875,178.7969 2629.875,179.1406 Q2629.875,179.4844 2629.5313,179.8906 Q2629.0313,180.4688 2628.2344,180.7969 Q2627.1563,181.25 2625.8594,181.25 Q2624.3438,181.25 2623.1406,180.625 Q2622.1563,180.125 2621.4688,179.0547 Q2620.7813,177.9844 2620.7813,176.7031 L2620.7813,175.5469 Q2620.7813,174.2188 2621.3984,173.0703 Q2622.0156,171.9219 2623.1094,171.3047 Q2624.2031,170.6875 2625.4375,170.6875 Q2626.1719,170.6875 2626.8203,170.8516 Q2627.4688,171.0156 2628.0156,171.375 Z " fill="#000000"/><text fill="#000000" font-family="sans-serif" font-size="14" lengthAdjust="spacing" textLength="114" x="2645.75" y="181.2285">Project_Controller</text><line style="stroke:#181818;stroke-width:0.5;" x1="2558.5" x2="2814.5" y1="191.5" y2="191.5"/><line style="stroke:#181818;stroke-width:0.5;" x1="2558.5" x2="2814.5" y1="199.5" y2="199.5"/><ellipse cx="2568.5" cy="213.8047" fill="#84BE84" rx="3" ry="3" style="stroke:#038048;stroke-width:1.0;"/><text fill="#000000" font-family="sans-serif" font-size="14" lengthAdjust="spacing" textLength="172" x="2577.5" y="218.0332">index(idUser : String) : Void</text><ellipse cx="2568.5" cy="231.4141" fill="#84BE84" rx="3" ry="3" style="stroke:#038048;stroke-width:1.0;"/><text fill="#000000" font-family="sans-serif" font-size="14" lengthAdjust="spacing" textLength="232" x="2577.5" y="235.6426">detailProject(idProject : String) : Void</text></g><!--MD5=[f986468d6359e8f1e4de8456d136a9d5]
class NLP_Model--><g id="elem_NLP_Model"><rect codeLine="96" fill="#F1F1F1" height="83.2188" id="NLP_Model" rx="2.5" ry="2.5" style="stroke:#181818;stroke-width:0.5;" width="253" x="2207" y="346.5"/><ellipse cx="2293.25" cy="362.5" fill="#ADD1B2" rx="11" ry="11" style="stroke:#181818;stroke-width:1.0;"/><path d="M2296.0156,358.375 Q2296.1719,358.1563 2296.3594,358.0469 Q2296.5469,357.9375 2296.7656,357.9375 Q2297.1406,357.9375 2297.375,358.1953 Q2297.6094,358.4531 2297.6094,359.0625 L2297.6094,360.5156 Q2297.6094,361.125 2297.375,361.3906 Q2297.1406,361.6563 2296.7656,361.6563 Q2296.4219,361.6563 2296.2188,361.4531 Q2296.0156,361.2656 2295.9063,360.75 Q2295.8594,360.3906 2295.6719,360.2031 Q2295.3438,359.8281 2294.7344,359.6094 Q2294.125,359.3906 2293.5,359.3906 Q2292.7344,359.3906 2292.1016,359.7188 Q2291.4688,360.0469 2290.9766,360.7969 Q2290.4844,361.5469 2290.4844,362.5781 L2290.4844,363.6719 Q2290.4844,364.9063 2291.375,365.7266 Q2292.2656,366.5469 2293.8594,366.5469 Q2294.7969,366.5469 2295.4531,366.2969 Q2295.8438,366.1406 2296.2656,365.7031 Q2296.5313,365.4375 2296.6797,365.3594 Q2296.8281,365.2813 2297.0313,365.2813 Q2297.3594,365.2813 2297.6172,365.5391 Q2297.875,365.7969 2297.875,366.1406 Q2297.875,366.4844 2297.5313,366.8906 Q2297.0313,367.4688 2296.2344,367.7969 Q2295.1563,368.25 2293.8594,368.25 Q2292.3438,368.25 2291.1406,367.625 Q2290.1563,367.125 2289.4688,366.0547 Q2288.7813,364.9844 2288.7813,363.7031 L2288.7813,362.5469 Q2288.7813,361.2188 2289.3984,360.0703 Q2290.0156,358.9219 2291.1094,358.3047 Q2292.2031,357.6875 2293.4375,357.6875 Q2294.1719,357.6875 2294.8203,357.8516 Q2295.4688,358.0156 2296.0156,358.375 Z " fill="#000000"/><text fill="#000000" font-family="sans-serif" font-size="14" lengthAdjust="spacing" textLength="72" x="2313.75" y="368.2285">NLP_Model</text><line style="stroke:#181818;stroke-width:0.5;" x1="2208" x2="2459" y1="378.5" y2="378.5"/><line style="stroke:#181818;stroke-width:0.5;" x1="2208" x2="2459" y1="386.5" y2="386.5"/><ellipse cx="2218" cy="400.8047" fill="#84BE84" rx="3" ry="3" style="stroke:#038048;stroke-width:1.0;"/><text fill="#000000" font-family="sans-serif" font-size="14" lengthAdjust="spacing" textLength="206" x="2227" y="405.0332">findAktor(desc : String) : String[ ]</text><ellipse cx="2218" cy="418.4141" fill="#84BE84" rx="3" ry="3" style="stroke:#038048;stroke-width:1.0;"/><text fill="#000000" font-family="sans-serif" font-size="14" lengthAdjust="spacing" textLength="227" x="2227" y="422.6426">findUsecase(desc : String) : String[ ]</text></g><!--MD5=[7a25e1c0cf9f57ccf31195bd84e79339]
link Controller to Model--><g id="link_Controller_Model"><path codeLine="9" d="M1893.19,46.9 C1674.46,72.52 808.86,173.95 622.13,195.83 " fill="none" id="Controller-Model" style="stroke:#181818;stroke-width:1.0;"/></g><!--MD5=[01a2e04289eefa46970f9de88ad0aba9]
link Controller to View--><g id="link_Controller_View"><path codeLine="15" d="M1893.34,48.43 C1830.44,59.42 1720.98,84.2 1639.5,133 C1624.26,142.13 1609.95,155.48 1598.51,167.87 " fill="none" id="Controller-View" style="stroke:#181818;stroke-width:1.0;"/></g><!--MD5=[749fb57add7f9afb82fcb2dbed133ceb]
reverse link View to Specification_Input_Screen--><g id="link_View_Specification_Input_Screen"><path codeLine="16" d="M1504.78,230.8 C1445.8,256.09 1358.13,294.18 1282.5,329 C1258.22,340.18 1231.43,353.08 1209.32,363.87 " fill="none" id="View-backto-Specification_Input_Screen" style="stroke:#181818;stroke-width:1.0;"/><polygon fill="none" points="1502.11,224.34,1523.25,222.9,1507.61,237.21,1502.11,224.34" style="stroke:#181818;stroke-width:1.0;"/></g><!--MD5=[61573ad404c015a646c4bf0400607aa8]
reverse link View to Diagram_Input_Screen--><g id="link_View_Diagram_Input_Screen"><path codeLine="17" d="M1526.15,248.61 C1489.55,285.4 1440.05,335.17 1411.47,363.91 " fill="none" id="View-backto-Diagram_Input_Screen" style="stroke:#181818;stroke-width:1.0;"/><polygon fill="none" points="1521.38,243.47,1540.45,234.22,1531.31,253.34,1521.38,243.47" style="stroke:#181818;stroke-width:1.0;"/></g><!--MD5=[59c4dd5b91b5caf84a96ecde40eb823d]
reverse link View to Home_Screen--><g id="link_View_Home_Screen"><path codeLine="18" d="M1572.5,254.34 C1572.5,290.43 1572.5,336.64 1572.5,363.91 " fill="none" id="View-backto-Home_Screen" style="stroke:#181818;stroke-width:1.0;"/><polygon fill="none" points="1565.5,254.22,1572.5,234.22,1579.5,254.22,1565.5,254.22" style="stroke:#181818;stroke-width:1.0;"/></g><!--MD5=[0ae7e5b7107eca29afd141287019da6e]
reverse link View to Login_Screen--><g id="link_View_Login_Screen"><path codeLine="19" d="M1612.63,249.59 C1643.57,286.28 1685.01,335.43 1709.03,363.91 " fill="none" id="View-backto-Login_Screen" style="stroke:#181818;stroke-width:1.0;"/><polygon fill="none" points="1607.21,254.03,1599.67,234.22,1617.92,245,1607.21,254.03" style="stroke:#181818;stroke-width:1.0;"/></g><!--MD5=[b840bca47c0a79dc6e38401240ee51ad]
reverse link View to Signup_Screen--><g id="link_View_Signup_Screen"><path codeLine="20" d="M1613.28,248.3 C1621.43,255.89 1630.33,263.17 1639.5,269 C1705.71,311.08 1735.86,292.89 1805.5,329 C1824.38,338.79 1843.96,352.28 1859.35,363.79 " fill="none" id="View-backto-Signup_Screen" style="stroke:#181818;stroke-width:1.0;"/><polygon fill="none" points="1608.25,253.17,1599.07,234.08,1618.16,243.28,1608.25,253.17" style="stroke:#181818;stroke-width:1.0;"/></g><!--MD5=[40c32b2edc34d88f7c85547618c7609b]
reverse link View to Tabel_Screen--><g id="link_View_Tabel_Screen"><path codeLine="21" d="M1611.52,248.68 C1620.01,256.49 1629.48,263.75 1639.5,269 C1771.95,338.35 1833.34,269.49 1970.5,329 C1990.01,337.46 2009.21,351.65 2023.68,363.87 " fill="none" id="View-backto-Tabel_Screen" style="stroke:#181818;stroke-width:1.0;"/><polygon fill="none" points="1606.43,253.49,1597.38,234.33,1616.4,243.66,1606.43,253.49" style="stroke:#181818;stroke-width:1.0;"/></g><!--MD5=[2e60b85283eec68fb985af438b76834e]
reverse link Model to User--><g id="link_Model_User"><path d="M531.18,211.32 C445.28,227.21 276.12,264.3 145.5,329 C139.75,331.85 133.99,335.13 128.35,338.65 " fill="none" id="Model-backto-User" style="stroke:#181818;stroke-width:1.0;"/><polygon fill="none" points="529.98,204.42,550.91,207.77,532.46,218.2,529.98,204.42" style="stroke:#181818;stroke-width:1.0;"/></g><!--MD5=[eae661cbeeb0d68d0f53c29153c02671]
reverse link Model to Project--><g id="link_Model_Project"><path d="M532.25,225.52 C478.11,249.59 393.04,289.02 322.5,329 C316.93,332.16 311.24,335.54 305.56,339.02 " fill="none" id="Model-backto-Project" style="stroke:#181818;stroke-width:1.0;"/><polygon fill="none" points="529.59,219.04,550.71,217.37,535.24,231.85,529.59,219.04" style="stroke:#181818;stroke-width:1.0;"/></g><!--MD5=[d7ac1c0d1a3715863857c92b2a885b21]
reverse link Model to Spec--><g id="link_Model_Spec"><path d="M551.02,239.72 C526.99,265.28 494.74,299.56 467.41,328.61 " fill="none" id="Model-backto-Spec" style="stroke:#181818;stroke-width:1.0;"/><polygon fill="none" points="546.01,234.83,564.81,225.06,556.21,244.42,546.01,234.83" style="stroke:#181818;stroke-width:1.0;"/></g><!--MD5=[ecda76133ee02b44877365fbf0c66434]
reverse link Model to Skenario--><g id="link_Model_Skenario"><path d="M586.5,245.27 C586.5,270.1 586.5,301.61 586.5,328.61 " fill="none" id="Model-backto-Skenario" style="stroke:#181818;stroke-width:1.0;"/><polygon fill="none" points="579.5,245.06,586.5,225.06,593.5,245.06,579.5,245.06" style="stroke:#181818;stroke-width:1.0;"/></g><!--MD5=[c6e0c70714916759233809f2df510e94]
reverse link Model to Use_Case--><g id="link_Model_Use_Case"><path d="M621.19,239.98 C649.51,270.97 689.43,314.67 718.38,346.36 " fill="none" id="Model-backto-Use_Case" style="stroke:#181818;stroke-width:1.0;"/><polygon fill="none" points="615.88,244.54,607.56,225.06,626.22,235.1,615.88,244.54" style="stroke:#181818;stroke-width:1.0;"/></g><!--MD5=[f3f51cb801ecee175656fdd49d4e424a]
reverse link Model to Aktor--><g id="link_Model_Aktor"><path d="M640.71,228.2 C692.22,253.34 771.67,292.72 839.5,329 C845.34,332.12 851.34,335.39 857.36,338.71 " fill="none" id="Model-backto-Aktor" style="stroke:#181818;stroke-width:1.0;"/><polygon fill="none" points="637.34,234.34,622.41,219.3,643.46,221.76,637.34,234.34" style="stroke:#181818;stroke-width:1.0;"/></g><!--MD5=[17cf749dd52507152245ab4d5b8e4978]
reverse link Controller to User_Controller--><g id="link_Controller_User_Controller"><path codeLine="62" d="M1898.55,87.71 C1884.98,101.81 1869.81,117.58 1855.22,132.74 " fill="none" id="Controller-backto-User_Controller" style="stroke:#181818;stroke-width:1.0;"/><polygon fill="none" points="1893.63,82.73,1912.54,73.18,1903.71,92.44,1893.63,82.73" style="stroke:#181818;stroke-width:1.0;"/></g><!--MD5=[80a8f281eaa3c468f7eaa04d85d40c5d]
reverse link Controller to Diagram_Controller--><g id="link_Controller_Diagram_Controller"><path codeLine="63" d="M1988.48,87.74 C2010.35,110.47 2036.38,137.53 2057.42,159.38 " fill="none" id="Controller-backto-Diagram_Controller" style="stroke:#181818;stroke-width:1.0;"/><polygon fill="none" points="1983.29,92.44,1974.46,73.18,1993.37,82.73,1983.29,92.44" style="stroke:#181818;stroke-width:1.0;"/></g><!--MD5=[2c6827edeee6dd043f71faf8dbe297fa]
reverse link Controller to Spec_Controller--><g id="link_Controller_Spec_Controller"><path codeLine="64" d="M2013.28,58.73 C2076.34,75.49 2171.29,102.54 2251.5,133 C2271.99,140.78 2293.65,150.19 2313.76,159.47 " fill="none" id="Controller-backto-Spec_Controller" style="stroke:#181818;stroke-width:1.0;"/><polygon fill="none" points="2011.15,65.41,1993.58,53.56,2014.7,51.87,2011.15,65.41" style="stroke:#181818;stroke-width:1.0;"/></g><!--MD5=[837e79bc97f4636e4e0f9d67b544693b]
reverse link Controller to Project_Controller--><g id="link_Controller_Project_Controller"><path codeLine="65" d="M2013.58,45.57 C2126.4,54.3 2354.36,77.67 2539.5,133 C2562.34,139.83 2586.22,149.51 2607.93,159.39 " fill="none" id="Controller-backto-Project_Controller" style="stroke:#181818;stroke-width:1.0;"/><polygon fill="none" points="2013,52.54,1993.57,44.08,2014.04,38.58,2013,52.54" style="stroke:#181818;stroke-width:1.0;"/></g><!--MD5=[bc42f92e09039f16baf5f019f2d64de5]
link Diagram_Controller to NLP_Model--><g id="link_Diagram_Controller_NLP_Model"><path codeLine="93" d="M2148.51,242.6 C2188.03,273.44 2242.13,315.67 2281.61,346.5 " fill="none" id="Diagram_Controller-NLP_Model" style="stroke:#181818;stroke-width:1.0;"/></g><!--MD5=[325d50bb69481d1d05a531227c1555c2]
link Spec_Controller to NLP_Model--><g id="link_Spec_Controller_NLP_Model"><path codeLine="94" d="M2381.89,242.6 C2371.56,273.44 2357.4,315.67 2347.07,346.5 " fill="none" id="Spec_Controller-NLP_Model" style="stroke:#181818;stroke-width:1.0;"/></g><!--MD5=[05236991cf2be9a955f5a777a28e1316]
@startuml

abstract class Controller {
    model : Model
}

abstract class Model {
}

Controller - - Model

abstract class View{
    void Display()
}

Controller - - View
View <|- - Specification_Input_Screen
View <|- - Diagram_Input_Screen
View <|- - Home_Screen
View <|- - Login_Screen
View <|- - Signup_Screen
View <|- - Tabel_Screen


entity User extends Model {
    user_id : String
    email : String
    password : String
}


entity Project extends Model{
    id_diagram : String
    judul_project : String
    img_path : String
}

entity Spec extends Model {
    spec_id : String
    deskrisi : String
    kondisi_awal : String
    kondisi_akhir : String
}

entity Skenario extends Model {
    id_skenario : String
    step : String
    isactor : Boolean
    category : Boolean
}

entity Use_Case extends Model {
    id_usecase : String
    use_case : String
}

entity Aktor extends Model {
    id_aktor : String
    nama_aktor : String
    deskripsi_project : String
}

Controller <|- - User_Controller
Controller <|- - Diagram_Controller
Controller <|- - Spec_Controller
Controller <|- - Project_Controller

class NLP_Model {
}

class User_Controller {
    +showLogin() : Void
    +showSignup() : Void
    +authenticate(request : Request) : Void
    +storeUser(request : Request) : Void
    +detail(idUser : String) : Void
}

class Diagram_Controller {
    +createDiagram() : Void
    +storeDiagram(request : Request) : Void
}

class Spec_Controller {
    +createSpec() : Void
    +storeSpec(request : Request) : Void
}

class Project_Controller {
    +index(idUser : String) : Void
    +detailProject(idProject : String) : Void
}

Diagram_Controller - - NLP_Model
Spec_Controller - - NLP_Model

class NLP_Model{
    +findAktor(desc : String) : String[ ]
    +findUsecase(desc : String) : String[ ]
}

@enduml

PlantUML version 1.2022.7(Tue Aug 23 00:01:30 ICT 2022)
(GPL source distribution)
Java Runtime: Java(TM) SE Runtime Environment
JVM: Java HotSpot(TM) 64-Bit Server VM
Default Encoding: Cp1252
Language: en
Country: US
--></g></svg>